# xmcd
#
# Track frame offsets:
#  150
#  16725
#  30349
#  49056
#  75152
#  96843
#  117656
#  139125
#  156486
#  176790
#
# Disc length: 2630 seconds
#
# Revision: 0
# Processed by: cddbd v1.5.2PL0 Copyright (c) Steve Scherf et al.
# Submitted via: Collectorz.com_Music_Collector 6.11
#
DISCID=780a440a
DTITLE=Gin On The Rocks - Rockadile
DYEAR=1996
DGENRE=Rock
TTITLE0=Down In Hollywood
TTITLE1=Running Man
TTITLE2=Black Money
TTITLE3=First Time
TTITLE4=Why Cry
TTITLE5=Harley Davidson Man
TTITLE6=Love Ride
TTITLE7=Fire
TTITLE8=Crazy
TTITLE9=Hy On Rock 'N Roll
EXTD=
EXTT0=
EXTT1=
EXTT2=
EXTT3=
EXTT4=
EXTT5=
EXTT6=
EXTT7=
EXTT8=
EXTT9=
PLAYORDER=
